<?xml version="1.0" encoding="UTF-8"?>
<svg xmlns="http://www.w3.org/2000/svg" viewBox="0 0 760 320"
     font-family="ui-monospace, SFMono-Regular, Menlo, Consolas, monospace" font-size="13">
  <title>A pipeline diagram showing the four stages of frame differencing: a reference frame and a current frame combine into a difference image, the difference is thresholded into a binary mask, and the binary mask is annotated with bounding boxes around its connected regions.</title>
  <style>
    svg { color: #111; }
    @media (prefers-color-scheme: dark) { svg { color: #eee; } }
  </style>

  <g fill="none" stroke="currentColor" stroke-width="1.4">
    <rect x="30" y="90" width="100" height="75"/>
  </g>
  <g fill="currentColor" opacity="0.35">
    <rect x="48" y="115" width="22" height="35"/>
    <rect x="78" y="125" width="22" height="25"/>
  </g>
  <g fill="currentColor" font-size="11" text-anchor="middle">
    <text x="80" y="80">reference</text>
    <text x="80" y="185" opacity="0.65">stored at startup</text>
  </g>

  <g fill="none" stroke="currentColor" stroke-width="1.4">
    <rect x="170" y="90" width="100" height="75"/>
  </g>
  <g fill="currentColor" opacity="0.35">
    <rect x="188" y="115" width="22" height="35"/>
    <rect x="240" y="118" width="20" height="32"/>
    <rect x="218" y="125" width="22" height="25"/>
  </g>
  <g fill="currentColor" font-size="11" text-anchor="middle">
    <text x="220" y="80">current</text>
    <text x="220" y="185" opacity="0.65">latest snapshot</text>
  </g>

  <g fill="none" stroke="currentColor" stroke-width="1.6">
    <line x1="280" y1="128" x2="328" y2="128"/>
  </g>
  <g fill="currentColor" stroke="none">
    <polygon points="320,124 320,132 328,128"/>
  </g>
  <g fill="currentColor" font-size="10" text-anchor="middle" opacity="0.65">
    <text x="304" y="118">diff</text>
  </g>

  <g fill="none" stroke="currentColor" stroke-width="1.4">
    <rect x="338" y="90" width="100" height="75"/>
  </g>
  <g fill="currentColor" opacity="0.55">
    <rect x="408" y="118" width="20" height="32"/>
  </g>
  <g fill="currentColor" font-size="11" text-anchor="middle">
    <text x="388" y="80">difference</text>
    <text x="388" y="185" opacity="0.65">|current - reference|</text>
  </g>

  <g fill="none" stroke="currentColor" stroke-width="1.6">
    <line x1="448" y1="128" x2="496" y2="128"/>
  </g>
  <g fill="currentColor" stroke="none">
    <polygon points="488,124 488,132 496,128"/>
  </g>
  <g fill="currentColor" font-size="10" text-anchor="middle" opacity="0.65">
    <text x="472" y="118">threshold</text>
  </g>

  <g fill="none" stroke="currentColor" stroke-width="1.4">
    <rect x="506" y="90" width="100" height="75"/>
  </g>
  <g fill="currentColor">
    <rect x="576" y="118" width="20" height="32"/>
  </g>
  <g fill="currentColor" font-size="11" text-anchor="middle">
    <text x="556" y="80">binary mask</text>
    <text x="556" y="185" opacity="0.65">changed positions</text>
  </g>

  <g fill="none" stroke="currentColor" stroke-width="1.6">
    <line x1="616" y1="128" x2="660" y2="128"/>
  </g>
  <g fill="currentColor" stroke="none">
    <polygon points="652,124 652,132 660,128"/>
  </g>
  <g fill="currentColor" font-size="10" text-anchor="middle" opacity="0.65">
    <text x="638" y="118">regions</text>
  </g>

  <g fill="none" stroke="currentColor" stroke-width="1.4">
    <rect x="670" y="90" width="80" height="75"/>
  </g>
  <g fill="currentColor">
    <rect x="712" y="118" width="20" height="32"/>
  </g>
  <g fill="none" stroke="currentColor" stroke-width="1.4" stroke-dasharray="3 2">
    <rect x="706" y="112" width="32" height="44"/>
  </g>
  <g fill="currentColor" font-size="11" text-anchor="middle">
    <text x="710" y="80">motion list</text>
    <text x="710" y="185" opacity="0.65">bounding boxes</text>
  </g>

  <g fill="currentColor" font-size="11" text-anchor="middle" opacity="0.6">
    <text x="380" y="270">each frame: snapshot, difference against reference, threshold, list regions</text>
  </g>
</svg>
