<?xml version="1.0" encoding="UTF-8"?>
<svg xmlns="http://www.w3.org/2000/svg" viewBox="0 0 760 380"
     font-family="ui-monospace, SFMono-Regular, Menlo, Consolas, monospace" font-size="13">
  <title>An ROI is an axis-aligned rectangle; a mask is an arbitrary set of pixels (here roughly circular). Pixels are only modified when they are inside the ROI and on in the mask.</title>
  <style>
    svg { color: #111; }
    @media (prefers-color-scheme: dark) { svg { color: #eee; } }
  </style>

  <g fill="none" stroke="currentColor" stroke-width="1" opacity="0.3">
    <rect x="200" y="40" width="30" height="30"/>
    <rect x="230" y="40" width="30" height="30"/>
    <rect x="260" y="40" width="30" height="30"/>
    <rect x="290" y="40" width="30" height="30"/>
    <rect x="320" y="40" width="30" height="30"/>
    <rect x="350" y="40" width="30" height="30"/>
    <rect x="380" y="40" width="30" height="30"/>
    <rect x="410" y="40" width="30" height="30"/>
    <rect x="440" y="40" width="30" height="30"/>
    <rect x="470" y="40" width="30" height="30"/>
    <rect x="500" y="40" width="30" height="30"/>
    <rect x="530" y="40" width="30" height="30"/>
    <rect x="200" y="70" width="30" height="30"/>
    <rect x="230" y="70" width="30" height="30"/>
    <rect x="260" y="70" width="30" height="30"/>
    <rect x="290" y="70" width="30" height="30"/>
    <rect x="320" y="70" width="30" height="30"/>
    <rect x="350" y="70" width="30" height="30"/>
    <rect x="380" y="70" width="30" height="30"/>
    <rect x="410" y="70" width="30" height="30"/>
    <rect x="440" y="70" width="30" height="30"/>
    <rect x="470" y="70" width="30" height="30"/>
    <rect x="500" y="70" width="30" height="30"/>
    <rect x="530" y="70" width="30" height="30"/>
    <rect x="200" y="100" width="30" height="30"/>
    <rect x="230" y="100" width="30" height="30"/>
    <rect x="260" y="100" width="30" height="30"/>
    <rect x="290" y="100" width="30" height="30"/>
    <rect x="320" y="100" width="30" height="30"/>
    <rect x="350" y="100" width="30" height="30"/>
    <rect x="380" y="100" width="30" height="30"/>
    <rect x="410" y="100" width="30" height="30"/>
    <rect x="440" y="100" width="30" height="30"/>
    <rect x="470" y="100" width="30" height="30"/>
    <rect x="500" y="100" width="30" height="30"/>
    <rect x="530" y="100" width="30" height="30"/>
    <rect x="200" y="130" width="30" height="30"/>
    <rect x="230" y="130" width="30" height="30"/>
    <rect x="260" y="130" width="30" height="30"/>
    <rect x="290" y="130" width="30" height="30"/>
    <rect x="320" y="130" width="30" height="30"/>
    <rect x="350" y="130" width="30" height="30"/>
    <rect x="380" y="130" width="30" height="30"/>
    <rect x="410" y="130" width="30" height="30"/>
    <rect x="440" y="130" width="30" height="30"/>
    <rect x="470" y="130" width="30" height="30"/>
    <rect x="500" y="130" width="30" height="30"/>
    <rect x="530" y="130" width="30" height="30"/>
    <rect x="200" y="160" width="30" height="30"/>
    <rect x="230" y="160" width="30" height="30"/>
    <rect x="260" y="160" width="30" height="30"/>
    <rect x="290" y="160" width="30" height="30"/>
    <rect x="320" y="160" width="30" height="30"/>
    <rect x="350" y="160" width="30" height="30"/>
    <rect x="380" y="160" width="30" height="30"/>
    <rect x="410" y="160" width="30" height="30"/>
    <rect x="440" y="160" width="30" height="30"/>
    <rect x="470" y="160" width="30" height="30"/>
    <rect x="500" y="160" width="30" height="30"/>
    <rect x="530" y="160" width="30" height="30"/>
    <rect x="200" y="190" width="30" height="30"/>
    <rect x="230" y="190" width="30" height="30"/>
    <rect x="260" y="190" width="30" height="30"/>
    <rect x="290" y="190" width="30" height="30"/>
    <rect x="320" y="190" width="30" height="30"/>
    <rect x="350" y="190" width="30" height="30"/>
    <rect x="380" y="190" width="30" height="30"/>
    <rect x="410" y="190" width="30" height="30"/>
    <rect x="440" y="190" width="30" height="30"/>
    <rect x="470" y="190" width="30" height="30"/>
    <rect x="500" y="190" width="30" height="30"/>
    <rect x="530" y="190" width="30" height="30"/>
    <rect x="200" y="220" width="30" height="30"/>
    <rect x="230" y="220" width="30" height="30"/>
    <rect x="260" y="220" width="30" height="30"/>
    <rect x="290" y="220" width="30" height="30"/>
    <rect x="320" y="220" width="30" height="30"/>
    <rect x="350" y="220" width="30" height="30"/>
    <rect x="380" y="220" width="30" height="30"/>
    <rect x="410" y="220" width="30" height="30"/>
    <rect x="440" y="220" width="30" height="30"/>
    <rect x="470" y="220" width="30" height="30"/>
    <rect x="500" y="220" width="30" height="30"/>
    <rect x="530" y="220" width="30" height="30"/>
    <rect x="200" y="250" width="30" height="30"/>
    <rect x="230" y="250" width="30" height="30"/>
    <rect x="260" y="250" width="30" height="30"/>
    <rect x="290" y="250" width="30" height="30"/>
    <rect x="320" y="250" width="30" height="30"/>
    <rect x="350" y="250" width="30" height="30"/>
    <rect x="380" y="250" width="30" height="30"/>
    <rect x="410" y="250" width="30" height="30"/>
    <rect x="440" y="250" width="30" height="30"/>
    <rect x="470" y="250" width="30" height="30"/>
    <rect x="500" y="250" width="30" height="30"/>
    <rect x="530" y="250" width="30" height="30"/>
    <rect x="200" y="280" width="30" height="30"/>
    <rect x="230" y="280" width="30" height="30"/>
    <rect x="260" y="280" width="30" height="30"/>
    <rect x="290" y="280" width="30" height="30"/>
    <rect x="320" y="280" width="30" height="30"/>
    <rect x="350" y="280" width="30" height="30"/>
    <rect x="380" y="280" width="30" height="30"/>
    <rect x="410" y="280" width="30" height="30"/>
    <rect x="440" y="280" width="30" height="30"/>
    <rect x="470" y="280" width="30" height="30"/>
    <rect x="500" y="280" width="30" height="30"/>
    <rect x="530" y="280" width="30" height="30"/>
  </g>

  <g fill="currentColor" opacity="0.55">
    <rect x="320" y="70" width="30" height="30"/>
    <rect x="350" y="70" width="30" height="30"/>
    <rect x="380" y="70" width="30" height="30"/>
    <rect x="290" y="100" width="30" height="30"/>
    <rect x="320" y="100" width="30" height="30"/>
    <rect x="350" y="100" width="30" height="30"/>
    <rect x="380" y="100" width="30" height="30"/>
    <rect x="410" y="100" width="30" height="30"/>
    <rect x="290" y="130" width="30" height="30"/>
    <rect x="320" y="130" width="30" height="30"/>
    <rect x="350" y="130" width="30" height="30"/>
    <rect x="380" y="130" width="30" height="30"/>
    <rect x="410" y="130" width="30" height="30"/>
    <rect x="290" y="160" width="30" height="30"/>
    <rect x="320" y="160" width="30" height="30"/>
    <rect x="350" y="160" width="30" height="30"/>
    <rect x="380" y="160" width="30" height="30"/>
    <rect x="410" y="160" width="30" height="30"/>
    <rect x="320" y="190" width="30" height="30"/>
    <rect x="350" y="190" width="30" height="30"/>
    <rect x="380" y="190" width="30" height="30"/>
  </g>

  <g fill="none" stroke="currentColor" stroke-width="2.5" stroke-dasharray="6 4">
    <rect x="260" y="70" width="210" height="150"/>
  </g>

  <g fill="currentColor" font-size="12" font-weight="bold">
    <text x="260" y="60">ROI</text>
    <text x="475" y="60" opacity="0.85">mask</text>
  </g>
  <g fill="none" stroke="currentColor" stroke-width="1.4">
    <line x1="510" y1="60" x2="410" y2="80"/>
  </g>
  <g fill="currentColor" stroke="none">
    <polygon points="416,76 408,82 419,84"/>
  </g>

  <g fill="currentColor" font-size="11" text-anchor="middle" opacity="0.65">
    <text x="380" y="355">filled cells = pixels modified  (inside ROI  AND  on in the mask)</text>
  </g>
</svg>
