<?xml version="1.0" encoding="UTF-8"?>
<svg xmlns="http://www.w3.org/2000/svg" viewBox="0 0 760 360"
     font-family="ui-monospace, SFMono-Regular, Menlo, Consolas, monospace" font-size="13">
  <title>A small image grid with a 3-by-3 neighbourhood highlighted near the top-left. The output pixel produced by that neighbourhood is drawn below the grid, and arrows show the neighbourhood sliding to the right and down to walk every position of the image.</title>
  <style>
    svg { color: #111; }
    @media (prefers-color-scheme: dark) { svg { color: #eee; } }
  </style>

  <g transform="translate(94 0)">
  <g fill="none" stroke="currentColor" stroke-width="1" opacity="0.45">
    <rect x="60" y="50" width="30" height="30"/>
    <rect x="90" y="50" width="30" height="30"/>
    <rect x="120" y="50" width="30" height="30"/>
    <rect x="150" y="50" width="30" height="30"/>
    <rect x="180" y="50" width="30" height="30"/>
    <rect x="210" y="50" width="30" height="30"/>
    <rect x="240" y="50" width="30" height="30"/>
    <rect x="270" y="50" width="30" height="30"/>
    <rect x="60" y="80" width="30" height="30"/>
    <rect x="90" y="80" width="30" height="30"/>
    <rect x="120" y="80" width="30" height="30"/>
    <rect x="150" y="80" width="30" height="30"/>
    <rect x="180" y="80" width="30" height="30"/>
    <rect x="210" y="80" width="30" height="30"/>
    <rect x="240" y="80" width="30" height="30"/>
    <rect x="270" y="80" width="30" height="30"/>
    <rect x="60" y="110" width="30" height="30"/>
    <rect x="90" y="110" width="30" height="30"/>
    <rect x="120" y="110" width="30" height="30"/>
    <rect x="150" y="110" width="30" height="30"/>
    <rect x="180" y="110" width="30" height="30"/>
    <rect x="210" y="110" width="30" height="30"/>
    <rect x="240" y="110" width="30" height="30"/>
    <rect x="270" y="110" width="30" height="30"/>
    <rect x="60" y="140" width="30" height="30"/>
    <rect x="90" y="140" width="30" height="30"/>
    <rect x="120" y="140" width="30" height="30"/>
    <rect x="150" y="140" width="30" height="30"/>
    <rect x="180" y="140" width="30" height="30"/>
    <rect x="210" y="140" width="30" height="30"/>
    <rect x="240" y="140" width="30" height="30"/>
    <rect x="270" y="140" width="30" height="30"/>
    <rect x="60" y="170" width="30" height="30"/>
    <rect x="90" y="170" width="30" height="30"/>
    <rect x="120" y="170" width="30" height="30"/>
    <rect x="150" y="170" width="30" height="30"/>
    <rect x="180" y="170" width="30" height="30"/>
    <rect x="210" y="170" width="30" height="30"/>
    <rect x="240" y="170" width="30" height="30"/>
    <rect x="270" y="170" width="30" height="30"/>
    <rect x="60" y="200" width="30" height="30"/>
    <rect x="90" y="200" width="30" height="30"/>
    <rect x="120" y="200" width="30" height="30"/>
    <rect x="150" y="200" width="30" height="30"/>
    <rect x="180" y="200" width="30" height="30"/>
    <rect x="210" y="200" width="30" height="30"/>
    <rect x="240" y="200" width="30" height="30"/>
    <rect x="270" y="200" width="30" height="30"/>
  </g>

  <g fill="currentColor" opacity="0.25">
    <rect x="120" y="110" width="90" height="90"/>
  </g>
  <g fill="none" stroke="currentColor" stroke-width="2">
    <rect x="120" y="110" width="90" height="90"/>
  </g>

  <g fill="currentColor" font-size="11" text-anchor="middle" opacity="0.85">
    <text x="165" y="248">neighbourhood at (x, y)</text>
  </g>

  <g fill="none" stroke="currentColor" stroke-width="1.5">
    <line x1="225" y1="155" x2="480" y2="155"/>
  </g>
  <g fill="currentColor" stroke="none">
    <polygon points="472,151 472,159 480,155"/>
  </g>

  <g fill="currentColor" font-size="12" font-weight="bold" text-anchor="middle">
    <text x="352" y="147">filter</text>
  </g>
  <g fill="currentColor" font-size="11" opacity="0.7" text-anchor="middle">
    <text x="352" y="172">(mean, median,</text>
    <text x="352" y="186">gaussian, ...)</text>
  </g>

  <g fill="none" stroke="currentColor" stroke-width="2">
    <rect x="505" y="135" width="50" height="50"/>
  </g>
  <g fill="currentColor" font-size="11" text-anchor="middle" opacity="0.85">
    <text x="530" y="208">output pixel</text>
    <text x="530" y="222" font-size="10">at (x, y)</text>
  </g>
  </g>

  <g fill="currentColor" font-size="11" text-anchor="middle" opacity="0.65">
    <text x="380" y="290">the neighbourhood walks across the input one pixel at a time;</text>
    <text x="380" y="306">at each position the filter produces one output pixel from the window's values</text>
  </g>

  <g transform="translate(94 0)">
  <g fill="none" stroke="currentColor" stroke-width="1.4">
    <line x1="160" y1="30" x2="220" y2="30"/>
  </g>
  <g fill="currentColor" stroke="none">
    <polygon points="212,26 212,34 220,30"/>
  </g>
  <g fill="currentColor" font-size="10" opacity="0.75">
    <text x="228" y="34">slide</text>
  </g>

  <g fill="none" stroke="currentColor" stroke-width="1.4">
    <line x1="40" y1="60" x2="40" y2="110"/>
  </g>
  <g fill="currentColor" stroke="none">
    <polygon points="36,102 44,102 40,110"/>
  </g>
  <g fill="currentColor" font-size="10" opacity="0.75">
    <text x="8" y="125">next row</text>
  </g>
  </g>
</svg>
