<?xml version="1.0" encoding="UTF-8"?>
<svg xmlns="http://www.w3.org/2000/svg" viewBox="0 0 760 360"
     font-family="ui-monospace, SFMono-Regular, Menlo, Consolas, monospace" font-size="13">
  <title>The same point P named two ways: by its Cartesian (x, y) offset from the top-left origin on the left, and by its polar (r, theta) -- distance and angle -- from a chosen centre C on the right.</title>
  <style>
    svg { color: #111; }
    @media (prefers-color-scheme: dark) { svg { color: #eee; } }
  </style>

  <g fill="none" stroke="currentColor" stroke-width="1.5">
    <rect x="40" y="60" width="320" height="240" rx="2"/>
  </g>
  <g fill="currentColor" font-size="12" text-anchor="middle" opacity="0.85">
    <text x="200" y="46">Cartesian  (x, y)</text>
  </g>

  <g fill="currentColor">
    <circle cx="40" cy="60" r="3"/>
    <text x="36" y="50" font-size="11" text-anchor="end">(0, 0)</text>
  </g>

  <g fill="none" stroke="currentColor" stroke-width="1.2">
    <line x1="40" y1="60" x2="115" y2="60"/>
  </g>
  <g fill="currentColor" stroke="none">
    <polygon points="107,56 107,64 115,60"/>
  </g>
  <g fill="currentColor" font-size="11">
    <text x="122" y="64">x</text>
  </g>

  <g fill="none" stroke="currentColor" stroke-width="1.2">
    <line x1="40" y1="60" x2="40" y2="130"/>
  </g>
  <g fill="currentColor" stroke="none">
    <polygon points="36,122 44,122 40,130"/>
  </g>
  <g fill="currentColor" font-size="11">
    <text x="28" y="145">y</text>
  </g>

  <g fill="none" stroke="currentColor" stroke-width="1.1" stroke-dasharray="4 3" opacity="0.6">
    <line x1="40" y1="180" x2="220" y2="180"/>
    <line x1="220" y1="60" x2="220" y2="180"/>
  </g>
  <g fill="currentColor">
    <circle cx="220" cy="180" r="4"/>
    <text x="230" y="184" font-size="12">P</text>
  </g>
  <g fill="currentColor" font-size="11" opacity="0.85">
    <text x="130" y="195" text-anchor="middle">x</text>
    <text x="232" y="125" text-anchor="middle">y</text>
  </g>

  <g fill="none" stroke="currentColor" stroke-width="1.5">
    <rect x="400" y="60" width="320" height="240" rx="2"/>
  </g>
  <g fill="currentColor" font-size="12" text-anchor="middle" opacity="0.85">
    <text x="560" y="46">Polar  (r, theta)</text>
  </g>

  <g fill="currentColor">
    <circle cx="560" cy="180" r="4"/>
    <text x="552" y="200" font-size="11" text-anchor="end">C</text>
  </g>

  <g fill="none" stroke="currentColor" stroke-width="1.1" stroke-dasharray="4 3" opacity="0.55">
    <line x1="560" y1="180" x2="680" y2="180"/>
  </g>

  <g fill="none" stroke="currentColor" stroke-width="1.4">
    <line x1="560" y1="180" x2="680" y2="120"/>
  </g>
  <g fill="currentColor">
    <circle cx="680" cy="120" r="4"/>
    <text x="690" y="120" font-size="12">P</text>
  </g>
  <g fill="currentColor" font-size="11" opacity="0.85">
    <text x="613" y="138" text-anchor="middle">r</text>
  </g>

  <g fill="none" stroke="currentColor" stroke-width="1.2">
    <path d="M 590 180 A 30 30 0 0 0 587 167"/>
  </g>
  <g fill="currentColor" font-size="11" opacity="0.85">
    <text x="610" y="173" text-anchor="middle">theta</text>
  </g>

  <g fill="currentColor" font-size="11" text-anchor="middle" opacity="0.65">
    <text x="380" y="335">the same point P, addressed in either coordinate system</text>
  </g>
</svg>
