<?xml version="1.0" encoding="UTF-8"?>
<svg xmlns="http://www.w3.org/2000/svg" viewBox="0 0 760 280"
     font-family="ui-monospace, SFMono-Regular, Menlo, Consolas, monospace" font-size="13">
  <title>Five panels in a row showing a noisy binary input region, and the result of applying dilate, erode, open, and close to it. Dilate grows the region and fills holes; erode shrinks the region and removes noise; open removes noise without significantly changing the region; close fills holes without significantly changing the region's outline.</title>
  <style>
    svg { color: #111; }
    @media (prefers-color-scheme: dark) { svg { color: #eee; } }
  </style>

  <g fill="currentColor" font-size="11" text-anchor="middle">
    <text x="70" y="35">input</text>
    <text x="220" y="35">dilate</text>
    <text x="370" y="35">erode</text>
    <text x="520" y="35">open</text>
    <text x="670" y="35">close</text>
  </g>

  <g fill="none" stroke="currentColor" stroke-width="1.2">
    <rect x="14" y="45" width="112" height="112"/>
    <rect x="164" y="45" width="112" height="112"/>
    <rect x="314" y="45" width="112" height="112"/>
    <rect x="464" y="45" width="112" height="112"/>
    <rect x="614" y="45" width="112" height="112"/>
  </g>

  <g fill="currentColor">
    <rect x="26" y="57" width="12" height="12"/>
    <rect x="50" y="69" width="12" height="12"/>
    <rect x="62" y="69" width="12" height="12"/>
    <rect x="74" y="69" width="12" height="12"/>
    <rect x="38" y="81" width="12" height="12"/>
    <rect x="50" y="81" width="12" height="12"/>
    <rect x="62" y="81" width="12" height="12"/>
    <rect x="74" y="81" width="12" height="12"/>
    <rect x="86" y="81" width="12" height="12"/>
    <rect x="38" y="93" width="12" height="12"/>
    <rect x="50" y="93" width="12" height="12"/>
    <rect x="74" y="93" width="12" height="12"/>
    <rect x="86" y="93" width="12" height="12"/>
    <rect x="38" y="105" width="12" height="12"/>
    <rect x="50" y="105" width="12" height="12"/>
    <rect x="62" y="105" width="12" height="12"/>
    <rect x="74" y="105" width="12" height="12"/>
    <rect x="86" y="105" width="12" height="12"/>
    <rect x="50" y="117" width="12" height="12"/>
    <rect x="62" y="117" width="12" height="12"/>
    <rect x="74" y="117" width="12" height="12"/>
    <rect x="110" y="129" width="12" height="12"/>
    <rect x="22" y="141" width="12" height="12"/>
  </g>

  <g fill="currentColor">
    <rect x="200" y="57" width="12" height="12"/>
    <rect x="212" y="57" width="12" height="12"/>
    <rect x="224" y="57" width="12" height="12"/>
    <rect x="188" y="69" width="12" height="12"/>
    <rect x="200" y="69" width="12" height="12"/>
    <rect x="212" y="69" width="12" height="12"/>
    <rect x="224" y="69" width="12" height="12"/>
    <rect x="236" y="69" width="12" height="12"/>
    <rect x="176" y="81" width="12" height="12"/>
    <rect x="188" y="81" width="12" height="12"/>
    <rect x="200" y="81" width="12" height="12"/>
    <rect x="212" y="81" width="12" height="12"/>
    <rect x="224" y="81" width="12" height="12"/>
    <rect x="236" y="81" width="12" height="12"/>
    <rect x="248" y="81" width="12" height="12"/>
    <rect x="176" y="93" width="12" height="12"/>
    <rect x="188" y="93" width="12" height="12"/>
    <rect x="200" y="93" width="12" height="12"/>
    <rect x="212" y="93" width="12" height="12"/>
    <rect x="224" y="93" width="12" height="12"/>
    <rect x="236" y="93" width="12" height="12"/>
    <rect x="248" y="93" width="12" height="12"/>
    <rect x="176" y="105" width="12" height="12"/>
    <rect x="188" y="105" width="12" height="12"/>
    <rect x="200" y="105" width="12" height="12"/>
    <rect x="212" y="105" width="12" height="12"/>
    <rect x="224" y="105" width="12" height="12"/>
    <rect x="236" y="105" width="12" height="12"/>
    <rect x="248" y="105" width="12" height="12"/>
    <rect x="188" y="117" width="12" height="12"/>
    <rect x="200" y="117" width="12" height="12"/>
    <rect x="212" y="117" width="12" height="12"/>
    <rect x="224" y="117" width="12" height="12"/>
    <rect x="236" y="117" width="12" height="12"/>
    <rect x="248" y="129" width="12" height="12"/>
    <rect x="260" y="129" width="12" height="12"/>
    <rect x="260" y="141" width="12" height="12"/>
    <rect x="164" y="141" width="12" height="12"/>
    <rect x="176" y="141" width="12" height="12"/>
    <rect x="164" y="129" width="12" height="12"/>
  </g>

  <g fill="currentColor">
    <rect x="350" y="81" width="12" height="12"/>
    <rect x="362" y="81" width="12" height="12"/>
    <rect x="374" y="81" width="12" height="12"/>
    <rect x="350" y="93" width="12" height="12"/>
    <rect x="362" y="93" width="12" height="12"/>
    <rect x="374" y="93" width="12" height="12"/>
    <rect x="386" y="93" width="12" height="12"/>
    <rect x="350" y="105" width="12" height="12"/>
    <rect x="362" y="105" width="12" height="12"/>
    <rect x="374" y="105" width="12" height="12"/>
    <rect x="386" y="105" width="12" height="12"/>
  </g>

  <g fill="currentColor">
    <rect x="488" y="69" width="12" height="12"/>
    <rect x="500" y="69" width="12" height="12"/>
    <rect x="512" y="69" width="12" height="12"/>
    <rect x="488" y="81" width="12" height="12"/>
    <rect x="500" y="81" width="12" height="12"/>
    <rect x="512" y="81" width="12" height="12"/>
    <rect x="524" y="81" width="12" height="12"/>
    <rect x="536" y="81" width="12" height="12"/>
    <rect x="488" y="93" width="12" height="12"/>
    <rect x="500" y="93" width="12" height="12"/>
    <rect x="524" y="93" width="12" height="12"/>
    <rect x="536" y="93" width="12" height="12"/>
    <rect x="488" y="105" width="12" height="12"/>
    <rect x="500" y="105" width="12" height="12"/>
    <rect x="512" y="105" width="12" height="12"/>
    <rect x="524" y="105" width="12" height="12"/>
    <rect x="536" y="105" width="12" height="12"/>
    <rect x="500" y="117" width="12" height="12"/>
    <rect x="512" y="117" width="12" height="12"/>
    <rect x="524" y="117" width="12" height="12"/>
  </g>

  <g fill="currentColor">
    <rect x="638" y="69" width="12" height="12"/>
    <rect x="650" y="69" width="12" height="12"/>
    <rect x="662" y="69" width="12" height="12"/>
    <rect x="638" y="81" width="12" height="12"/>
    <rect x="650" y="81" width="12" height="12"/>
    <rect x="662" y="81" width="12" height="12"/>
    <rect x="674" y="81" width="12" height="12"/>
    <rect x="686" y="81" width="12" height="12"/>
    <rect x="638" y="93" width="12" height="12"/>
    <rect x="650" y="93" width="12" height="12"/>
    <rect x="662" y="93" width="12" height="12"/>
    <rect x="674" y="93" width="12" height="12"/>
    <rect x="686" y="93" width="12" height="12"/>
    <rect x="638" y="105" width="12" height="12"/>
    <rect x="650" y="105" width="12" height="12"/>
    <rect x="662" y="105" width="12" height="12"/>
    <rect x="674" y="105" width="12" height="12"/>
    <rect x="686" y="105" width="12" height="12"/>
    <rect x="650" y="117" width="12" height="12"/>
    <rect x="662" y="117" width="12" height="12"/>
    <rect x="674" y="117" width="12" height="12"/>
    <rect x="710" y="129" width="12" height="12"/>
    <rect x="622" y="141" width="12" height="12"/>
  </g>

  <g fill="currentColor" font-size="11" text-anchor="middle" opacity="0.65">
    <text x="70" y="190">noise + hole</text>
    <text x="220" y="190">bigger,</text>
    <text x="220" y="206">no hole</text>
    <text x="370" y="190">smaller,</text>
    <text x="370" y="206">no noise</text>
    <text x="520" y="190">noise gone,</text>
    <text x="520" y="206">hole preserved</text>
    <text x="670" y="190">noise preserved,</text>
    <text x="670" y="206">hole filled</text>
  </g>

  <g fill="currentColor" font-size="11" text-anchor="middle" opacity="0.55">
    <text x="370" y="248">open = erode then dilate   --   close = dilate then erode</text>
  </g>
</svg>
